<svg id="symbol" xmlns="http://www.w3.org/2000/svg" width="1024" height="1024" viewBox="0 0 1024 1024">
  <defs>
    <style>
      .cls-1 {
        fill: #028afe;
      }

      .cls-1, .cls-2, .cls-3 {
        fill-rule: evenodd;
      }

      .cls-2 {
        fill: #ffae45;
      }

      .cls-3 {
        fill: #5c5c5c;
        mix-blend-mode: multiply;
      }
    </style>
  </defs>
  <path class="cls-1" d="M453.6,400.529V826.642a74.947,74.947,0,1,0,149.894,0V660.152L747.676,743.4a74.947,74.947,0,0,0,74.947-129.812Z"/>
  <path class="cls-2" d="M644.682,510L275.657,296.943A74.947,74.947,0,0,0,200.71,426.755L344.9,510,200.71,593.245a74.947,74.947,0,0,0,74.947,129.811Z"/>
  <path class="cls-3" d="M453.6,620.471L822.623,407.415A74.947,74.947,0,0,0,747.676,277.6L603.491,360.848V194.358a74.947,74.947,0,1,0-149.894,0V620.471Z"/>
</svg>
